Coordinates
version=1
nRows=16
nColumns=40
inDegrees=yes

Units are S.I. units (second, meters, Newtons, ...)
Angles are in degrees.

endheader
time	pelvis_tilt	pelvis_list	pelvis_rotation	pelvis_tx	pelvis_ty	pelvis_tz	hip_flexion_r	hip_adduction_r	hip_rotation_r	knee_angle_r	knee_angle_r_beta	ankle_angle_r	subtalar_angle_r	mtp_angle_r	hip_flexion_l	hip_adduction_l	hip_rotation_l	knee_angle_l	knee_angle_l_beta	ankle_angle_l	subtalar_angle_l	mtp_angle_l	lumbar_extension	lumbar_bending	lumbar_rotation	arm_flex_r	arm_add_r	arm_rot_r	elbow_flex_r	pro_sup_r	wrist_flex_r	wrist_dev_r	arm_flex_l	arm_add_l	arm_rot_l	elbow_flex_l	pro_sup_l	wrist_flex_l	wrist_dev_l
     20.35714286	     -3.88322429	     -5.53067624	     -3.19005509	      1.03567204	      0.93492989	      0.41922356	     36.93045896	     -0.52177403	     -4.25087015	     46.15360983	     46.15360983	      1.56059537	    -14.06753453	      1.10781234	     10.69484533	     -5.92407019	     -7.91312020	     19.72839020	     19.72839020	     14.15723206	    -12.96420611	     -0.82322022	    -12.10858962	      5.73171577	      1.53444352	      0.59503172	    -15.04979412	     -4.12434527	     23.29197280	     47.27356407	      0.00000000	      0.00000000	     13.86537672	    -14.33254930	     -6.58430345	     57.98986115	     46.91391056	      0.00000000	      0.00000000
     20.36928571	     -4.12030437	     -5.68677159	     -3.45591384	      1.03505748	      0.93447354	      0.42006613	     36.82503897	     -0.19006981	     -4.64168809	     42.35886187	     42.35886187	      1.29741751	    -12.45893896	      1.39913020	     10.31520859	     -6.12175397	     -8.01812004	     19.52929658	     19.52929658	     14.45286157	    -13.06234453	     -0.90610242	    -11.97140710	      5.97057254	      1.57595214	     -0.75030437	    -15.45057438	     -4.24325885	     22.59123973	     47.29873046	      0.00000000	      0.00000000	     14.50607186	    -14.49892102	     -6.81325362	     58.98823121	     46.95440957	      0.00000000	      0.00000000
     20.38142857	     -4.28029508	     -5.74305526	     -3.71513778	      1.03456782	      0.93399125	      0.42097869	     36.46970774	     -0.00131161	     -5.20394261	     38.37404515	     38.37404515	      0.60749334	    -10.47007371	      0.23830967	      9.81689908	     -6.22514893	     -8.26765602	     19.28114195	     19.28114195	     14.70321308	    -12.98224186	     -1.20574224	    -12.03853442	      6.02229144	      1.63047181	     -2.04057398	    -15.74069501	     -5.16925603	     22.00430318	     47.36908386	      0.00000000	      0.00000000	     14.25595147	    -14.69255248	     -7.39699728	     62.68944957	     47.07591684	      0.00000000	      0.00000000
     20.39357143	     -4.62163907	     -5.60207642	     -3.97633046	      1.03407369	      0.93309426	      0.42212549	     36.36632797	      0.19465338	     -5.31830330	     34.61501486	     34.61501486	      0.19990727	     -8.86533170	      0.80339895	      9.58409347	     -6.13150778	     -8.44765962	     19.14741035	     19.14741035	     15.00288718	    -13.05653531	     -1.34840690	    -11.68567548	      5.85926394	      1.44675794	     -3.21400436	    -15.97804417	     -5.24101430	     21.53851898	     47.38244793	      0.00000000	      0.00000000	     14.86493177	    -15.05616611	     -7.62464031	     63.42580488	     47.11101080	      0.00000000	      0.00000000
     20.40571429	     -4.66108701	     -5.83180059	     -4.12611394	      1.03410227	      0.93287930	      0.42319141	     35.46575433	      0.44753907	     -6.57864314	     30.42117201	     30.42117201	     -0.12727442	     -5.78329797	      0.84360769	      8.80084901	     -6.40637394	     -8.64599173	     18.66220013	     18.66220013	     15.16668753	    -12.80595737	     -1.74186050	    -11.93541542	      6.14026529	      1.71133601	     -4.78273306	    -16.32223617	     -5.92310172	     21.78995577	     47.39033392	      0.00000000	      0.00000000	     14.48361570	    -14.90206801	     -8.18530905	     67.33012154	     47.23459345	      0.00000000	      0.00000000
     20.41785714	     -4.82061533	     -5.80196148	     -4.34806826	      1.03421250	      0.93224783	      0.42456587	     34.81500290	      0.67792820	     -7.30938838	     26.67003917	     26.67003917	     -0.45018051	     -3.36594638	      1.63004419	      8.18142482	     -6.42017035	     -8.90914428	     18.24187721	     18.24187721	     15.39053858	    -12.67456452	     -1.91642710	    -11.86558793	      6.08172013	      1.91340414	     -6.12339791	    -16.45301292	     -6.06915105	     21.53525679	     47.39055908	      0.00000000	      0.00000000	     14.91509732	    -14.87333532	     -8.46695308	     68.94574678	     47.29253653	      0.00000000	      0.00000000
     20.43000000	     -4.88949272	     -5.76237785	     -4.49003009	      1.03472706	      0.93159892	      0.42596209	     33.98733974	      0.88724567	     -8.21963769	     23.18393259	     23.18393259	     -0.60515172	     -1.05368777	      2.69084340	      7.42202416	     -6.41257943	     -9.16528970	     17.78354985	     17.78354985	     15.63445046	    -12.47728591	     -2.14733032	    -11.82105839	      6.01898600	      2.05707764	     -7.44759572	    -16.59481186	     -6.24625232	     21.59081586	     47.37907014	      0.00000000	      0.00000000	     15.11384245	    -14.86422314	     -8.71243978	     70.83489391	     47.35068719	      0.00000000	      0.00000000
     20.44214286	     -5.01289605	     -5.61770363	     -4.62800249	      1.03531500	      0.93074417	      0.42745003	     33.36133194	      0.97419988	     -9.20467887	     20.36806354	     20.36806354	     -0.33593297	      1.26717895	      5.20706580	      6.71813135	     -6.30512535	     -9.45737413	     17.29834153	     17.29834153	     15.73195856	    -12.21575541	     -2.72391583	    -11.78142706	      5.83702590	      1.82514152	     -8.94564445	    -16.66064732	     -6.66510312	     22.96346319	     47.29779933	      0.00000000	      0.00000000	     14.62322497	    -15.05672944	     -9.22632273	     73.90295520	     47.46397011	      0.00000000	      0.00000000
     20.45428571	     -5.05647587	     -5.51831976	     -4.71689708	      1.03621519	      0.92988124	      0.42905214	     32.52537970	      1.17994242	    -10.06007078	     17.76687143	     17.76687143	     -0.50719632	      2.78764200	      6.28628728	      5.89886189	     -6.22919313	     -9.67154593	     16.80403154	     16.80403154	     16.00891425	    -11.94752439	     -2.87687601	    -11.68264871	      5.71334167	      1.97182744	    -10.15204634	    -16.64857176	     -6.69269956	     22.85145345	     47.28209415	      0.00000000	      0.00000000	     14.96258868	    -14.92162156	     -9.36915019	     75.12117781	     47.50300700	      0.00000000	      0.00000000
     20.46642857	     -5.13259142	     -5.39192981	     -4.77447727	      1.03722185	      0.92877580	      0.43076977	     31.94254348	      1.26437142	    -11.13918214	     16.10041424	     16.10041424	      0.12819258	      4.34522050	      9.09359725	      5.14958151	     -6.16925410	    -10.00650612	     16.36992389	     16.36992389	     16.23052558	    -11.48014932	     -3.39445253	    -11.60598112	      5.53759315	      1.88873057	    -11.66364248	    -16.61236243	     -6.87872828	     24.43100949	     47.15531241	      0.00000000	      0.00000000	     14.69668730	    -14.98121215	     -9.67361758	     77.51976363	     47.60224484	      0.00000000	      0.00000000
     20.47857143	     -5.25256668	     -5.28031244	     -4.76327227	      1.03835245	      0.92748649	      0.43257172	     31.28359093	      1.42417492	    -11.92357452	     14.61331733	     14.61331733	      0.01906355	      5.02686802	      9.61330025	      4.48401809	     -6.11829649	    -10.15992596	     16.00832851	     16.00832851	     16.54721636	    -11.17191100	     -3.52498674	    -11.35447558	      5.39640080	      1.95599227	    -12.59082389	    -16.42730746	     -6.86257350	     24.30580320	     47.14206232	      0.00000000	      0.00000000	     14.98513387	    -14.81545625	     -9.71936893	     78.39202653	     47.62763513	      0.00000000	      0.00000000
     20.49071429	     -5.39757987	     -5.12594695	     -4.73039714	      1.03950848	      0.92571411	      0.43448028	     31.03498597	      1.47289375	    -12.40932184	     14.28680130	     14.28680130	      0.16322791	      4.92266404	      9.67675390	      4.01572349	     -6.04738411	    -10.17049351	     15.96283404	     15.96283404	     16.96905906	    -11.15046964	     -3.69299279	    -10.99567453	      5.21853766	      1.66301227	    -13.13389215	    -16.31068286	     -6.87098648	     24.18815149	     47.14076048	      0.00000000	      0.00000000	     15.18287271	    -14.83984409	     -9.74963610	     78.66592076	     47.63663200	      0.00000000	      0.00000000
     20.50285714	     -5.40964438	     -5.23915859	     -4.56525587	      1.04100459	      0.92455448	      0.43649909	     29.92292048	      1.79283113	    -13.43875381	     13.07226261	     13.07226261	      0.01339939	      5.73351802	     10.00432401	      3.19129554	     -6.30977041	    -10.48668852	     15.56672662	     15.56672662	     17.38948472	    -10.18882829	     -3.95501549	    -10.92980348	      5.32889811	      1.97303483	    -14.29288281	    -15.94729949	     -6.96169887	     24.50545851	     47.11111487	      0.00000000	      0.00000000	     15.28003612	    -14.45525998	     -9.71826492	     80.47731246	     47.67412466	      0.00000000	      0.00000000
     20.51500000	     -5.59239657	     -5.16476121	     -4.42516452	      1.04234652	      0.92268673	      0.43860918	     29.51697022	      1.88325218	    -13.80903344	     13.10081125	     13.10081125	      0.17717611	      5.52400080	      9.94253856	      2.79504829	     -6.36905919	    -10.43280059	     15.57727349	     15.57727349	     17.81138795	    -10.10669298	     -4.12681012	    -10.53931920	      5.22909570	      1.68369059	    -14.67241976	    -15.73169863	     -6.97341484	     24.50469485	     47.10620134	      0.00000000	      0.00000000	     15.36926288	    -14.42411176	     -9.70750907	     80.71089118	     47.67911851	      0.00000000	      0.00000000
     20.52714286	     -5.60412059	     -5.27361776	     -4.17358948	      1.04401669	      0.92096758	      0.44092215	     28.69990839	      2.17151617	    -14.14066953	     12.92994699	     12.92994699	     -0.52934192	      5.15104925	      7.39689215	      2.39240253	     -6.89641565	    -11.39907031	     16.11706368	     16.11706368	     19.20534735	     -7.77287699	     -3.56820301	    -10.47817914	      5.35682969	      1.63252617	    -16.20023414	    -15.38355102	     -7.67913210	     27.45443966	     46.93651732	      0.00000000	      0.00000000	     14.90759425	    -14.30670566	     -9.74221029	     82.99461358	     47.77824162	      0.00000000	      0.00000000
     20.53928571	     -5.75703478	     -5.23540448	     -3.98648779	      1.04564621	      0.91930860	      0.44319347	     28.14301153	      2.29649343	    -14.24379906	     13.12208020	     13.12208020	     -0.35128989	      4.97929771	      7.26192306	      1.97829637	     -7.01766187	    -11.27025164	     16.17471806	     16.17471806	     19.54400461	     -7.71702049	     -3.69203079	    -10.09741810	      5.32790440	      1.43298739	    -16.36140774	    -15.06464259	     -7.64793995	     27.42471667	     46.93172246	      0.00000000	      0.00000000	     14.91706103	    -14.16297780	     -9.67778333	     83.08249625	     47.77668576	      0.00000000	      0.00000000
